<svg xmlns="http://www.w3.org/2000/svg" xmlns:xlink="http://www.w3.org/1999/xlink" width="100" zoomAndPan="magnify" viewBox="0 0 75 74.999997" height="100" preserveAspectRatio="xMidYMid meet" version="1.0"><defs><clipPath id="3da2b5a699"><path d="M 12.710938 12.710938 L 62.210938 12.710938 L 62.210938 62.210938 L 12.710938 62.210938 Z M 12.710938 12.710938 " clip-rule="nonzero"/></clipPath></defs><rect x="-7.5" width="90" fill="#ffffff" y="-7.5" height="89.999996" fill-opacity="1"/><rect x="-7.5" width="90" fill="#ffffff" y="-7.5" height="89.999996" fill-opacity="1"/><g clip-path="url(#3da2b5a699)"><path fill="#0eaae2" d="M 37.5 12.714844 L 40.789062 16.710938 L 45.15625 13.925781 L 47.050781 18.746094 L 52.066406 17.445312 L 52.378906 22.613281 L 57.550781 22.929688 L 56.25 27.941406 L 61.070312 29.835938 L 58.285156 34.203125 L 62.28125 37.496094 L 58.285156 40.789062 L 61.070312 45.15625 L 56.25 47.050781 L 57.550781 52.066406 L 52.378906 52.378906 L 52.066406 57.546875 L 47.050781 56.25 L 45.15625 61.070312 L 40.789062 58.285156 L 37.496094 62.28125 L 34.207031 58.285156 L 29.839844 61.070312 L 27.941406 56.25 L 22.929688 57.546875 L 22.617188 52.378906 L 17.445312 52.066406 L 18.746094 47.050781 L 13.925781 45.15625 L 16.710938 40.789062 L 12.710938 37.496094 L 16.710938 34.203125 L 13.925781 29.835938 L 18.746094 27.941406 L 17.445312 22.929688 L 22.617188 22.613281 L 22.929688 17.445312 L 27.941406 18.746094 L 29.839844 13.925781 L 34.207031 16.710938 L 37.496094 12.714844 Z M 37.5 12.714844 " fill-opacity="1" fill-rule="evenodd"/></g><path fill="#fefefe" d="M 44.691406 28.378906 L 48.480469 31.804688 C 43.976562 36.738281 39.414062 41.6875 34.949219 46.617188 L 26.515625 38.976562 L 29.898438 35.242188 L 34.570312 39.476562 Z M 44.691406 28.378906 " fill-opacity="1" fill-rule="evenodd"/></svg>